<svg width="31" height="31" viewBox="0 0 31 31" fill="none" xmlns="http://www.w3.org/2000/svg">
<path fill-rule="evenodd" clip-rule="evenodd" d="M15.5 31C24.0604 31 31 24.0604 31 15.5C31 15.1652 30.9894 14.8329 30.9685 14.5034C30.021 15.3941 29.1363 16.2432 28.2981 17.0477C21.3248 23.7406 17.564 27.3502 7.60377 26.1721C3.98247 25.6599 2.33973 22.0783 2.33962 19.1532C2.33952 16.4487 14.892 3.5188 26.0314 4.12711C23.2666 1.5657 19.5661 0 15.5 0C6.93959 0 0 6.93959 0 15.5C0 24.0604 6.93959 31 15.5 31Z" fill="url(#paint0_linear_1029_452)"/>
<path d="M30.6618 4.0752C30.6719 11.917 11.1631 28.5077 5.18315 24.9246C-0.796777 21.3414 1.03982 22.1765 7.23014 26.9802C13.4205 31.7838 32.7646 13.3095 30.6618 4.0752Z" fill="url(#paint1_linear_1029_452)"/>
<path d="M6.36816 16.4924C6.826 15.4081 7.6596 14.9234 9.78728 14.2637V24.0703C8.89754 24.8559 7.9242 24.8303 6.36816 24.9618V16.4924Z" fill="#D9D9D9"/>
<path d="M10.6982 13.6064C11.1439 12.278 12.0048 11.7263 14.1174 10.9531V22.1906C13.2789 22.9484 12.4904 23.5896 10.6982 23.689V13.6064Z" fill="#1F60B3" fill-opacity="0.49"/>
<path d="M15.0283 11.1486C15.5738 9.92035 16.4315 9.40688 18.4474 8.66016V17.761C18.4156 18.4013 18.0836 20.9289 15.0283 21.1413V11.1486Z" fill="#D9D9D9"/>
<path d="M19.3594 8.81268C19.9249 7.92872 20.6933 7.47419 22.7741 6.87695V13.5226C22.865 14.913 21.5499 18.1524 19.3594 18.0834V8.81268Z" fill="#1F60B3" fill-opacity="0.49"/>
<path d="M23.6885 6.95288C24.1663 6.21956 24.4538 5.72808 26.1232 5.21259C28.6328 4.14855 28.5897 10.5337 23.6885 14.5193V6.95288Z" fill="#D9D9D9"/>
<path d="M5.58496 24.96C4.44526 24.846 3.8754 22.9085 3.8754 22.9085C2.96364 20.971 2.62173 21.4269 5.58496 17.21L5.58496 24.96Z" fill="#1F60B3" fill-opacity="0.49"/>
<defs>
<linearGradient id="paint0_linear_1029_452" x1="9.80147" y1="2.50735" x2="24.2757" y2="24.3897" gradientUnits="userSpaceOnUse">
<stop stop-color="#1F60B3"/>
<stop offset="1" stop-color="#7E7E7E"/>
</linearGradient>
<linearGradient id="paint1_linear_1029_452" x1="10.7899" y1="5.99119" x2="20.7874" y2="24.6809" gradientUnits="userSpaceOnUse">
<stop stop-color="#161615"/>
<stop offset="1" stop-color="#383838"/>
</linearGradient>
</defs>
</svg>
